<?xml version="1.0" standalone="no"?>
<!DOCTYPE svg PUBLIC "-//W3C//DTD SVG 20010904//EN"
 "http://www.w3.org/TR/2001/REC-SVG-20010904/DTD/svg10.dtd">
<svg version="1.0" xmlns="http://www.w3.org/2000/svg"
 width="2512.000000pt" height="1012.000000pt" viewBox="0 0 2512.000000 1012.000000"
 preserveAspectRatio="xMidYMid meet">

<g transform="translate(0.000000,1012.000000) scale(0.100000,-0.100000)"
fill="#000000" stroke="none">
<path d="M4965 7585 c-81 -29 -129 -118 -106 -197 7 -23 26 -54 42 -70 16 -16
29 -31 29 -34 0 -2 -17 -4 -37 -5 -21 0 -77 -10 -126 -23 -49 -12 -85 -18 -83
-12 23 53 27 84 17 123 -21 78 -80 123 -161 123 -102 0 -175 -92 -155 -197 8
-46 70 -111 114 -119 l30 -6 -62 -41 c-34 -22 -81 -55 -103 -74 l-42 -33 -7
45 c-8 58 -51 108 -110 131 -39 14 -51 15 -90 4 -55 -15 -111 -73 -121 -125
-18 -99 60 -195 160 -195 40 0 43 -5 21 -30 -8 -9 -35 -51 -58 -93 l-44 -76
-22 30 c-52 71 -154 92 -222 46 -37 -24 -79 -97 -79 -137 0 -40 42 -113 79
-137 24 -16 49 -23 83 -23 88 0 123 30 183 157 135 287 378 500 671 589 82 26
102 28 254 28 151 0 172 -2 253 -27 176 -54 327 -148 459 -285 109 -113 167
-202 237 -360 30 -69 77 -102 146 -102 96 0 164 66 165 159 0 155 -208 222
-294 95 l-23 -34 -19 42 c-10 23 -36 69 -56 100 l-38 58 36 0 c20 0 53 9 73
21 55 31 75 65 79 134 3 50 0 66 -20 94 -70 104 -223 98 -278 -10 -11 -21 -20
-50 -20 -64 l0 -27 -27 22 c-16 11 -60 43 -99 69 l-72 48 34 12 c123 45 130
238 10 295 -74 35 -158 13 -209 -56 -24 -32 -34 -116 -17 -147 6 -13 10 -24 8
-26 -2 -3 -28 2 -58 10 -30 8 -83 18 -117 21 -35 4 -63 9 -63 11 0 2 13 21 30
41 54 68 52 147 -6 211 -23 26 -48 42 -79 50 -52 13 -41 13 -90 -4z m142 -69
c64 -70 35 -180 -55 -207 -78 -23 -162 39 -162 118 0 119 138 176 217 89z
m-512 -70 c68 -29 95 -118 55 -183 -45 -74 -139 -83 -197 -19 -60 65 -39 167
41 202 40 17 59 17 101 0z m972 -11 c28 -19 53 -71 53 -112 0 -103 -137 -158
-212 -86 -113 108 28 284 159 198z m-1324 -303 c65 -66 39 -181 -48 -210 -118
-39 -218 104 -138 198 34 41 58 51 112 46 32 -3 51 -12 74 -34z m1708 15 c91
-61 69 -195 -39 -228 -35 -10 -45 -9 -78 7 -53 27 -79 66 -78 118 2 104 110
161 195 103z m-1987 -411 c51 -21 76 -60 76 -118 0 -43 -5 -55 -33 -83 -43
-43 -79 -52 -131 -34 -106 37 -114 190 -13 234 41 18 60 18 101 1z m2213 -3
c46 -21 77 -86 67 -138 -8 -45 -55 -92 -99 -101 -142 -26 -212 169 -84 238 42
22 71 23 116 1z"/>
<path d="M4958 7504 c-82 -25 -61 -39 58 -38 58 1 108 4 111 8 8 8 -77 46
-102 45 -11 0 -41 -7 -67 -15z"/>
<path d="M4947 7444 c-27 -8 -47 -20 -45 -25 4 -12 5 -12 73 -4 28 4 74 2 103
-3 39 -7 52 -6 52 3 0 33 -114 51 -183 29z"/>
<path d="M4965 7386 c-22 -6 -39 -16 -38 -21 4 -12 183 -14 183 -3 0 11 -64
38 -87 37 -10 0 -36 -6 -58 -13z"/>
<path d="M4505 7404 c-40 -20 -75 -54 -75 -72 0 -7 3 -12 8 -10 4 2 30 15 57
30 28 14 70 31 93 37 23 7 40 16 37 21 -10 15 -87 11 -120 -6z"/>
<path d="M4551 7356 c-36 -13 -111 -71 -111 -87 0 -15 18 -10 58 15 20 13 65
34 100 46 34 13 62 27 62 31 0 13 -69 10 -109 -5z"/>
<path d="M4555 7294 c-40 -21 -65 -44 -65 -61 0 -17 1 -17 51 12 24 14 61 30
82 35 20 6 37 15 37 20 0 16 -72 11 -105 -6z"/>
<path d="M5410 7411 c0 -5 29 -19 64 -31 36 -12 76 -30 90 -41 25 -20 46 -25
46 -11 0 11 -60 67 -87 81 -26 13 -113 15 -113 2z"/>
<path d="M5382 7360 c2 -7 23 -19 46 -25 23 -7 67 -27 98 -44 88 -51 89 -12 0
43 -51 32 -152 50 -144 26z"/>
<path d="M5380 7301 c0 -5 17 -15 38 -21 20 -7 56 -23 80 -37 24 -14 46 -22
49 -19 10 10 -39 57 -74 72 -37 16 -93 19 -93 5z"/>
<path d="M4137 7133 c-46 -26 -87 -85 -87 -126 0 -27 18 -20 36 15 9 17 38 53
66 79 27 26 45 49 41 52 -5 3 -30 -6 -56 -20z"/>
<path d="M4173 7091 c-55 -40 -110 -151 -75 -151 4 0 16 16 27 36 10 20 43 57
72 84 29 27 53 51 53 54 0 15 -41 3 -77 -23z"/>
<path d="M4224 7051 c-34 -20 -67 -63 -78 -98 -11 -36 11 -35 34 1 11 19 36
48 55 65 54 47 46 67 -11 32z"/>
<path d="M5840 7150 c0 -5 21 -31 48 -57 26 -27 57 -61 68 -78 12 -16 25 -27
29 -23 12 11 -22 92 -48 116 -28 26 -97 56 -97 42z"/>
<path d="M5790 7111 c0 -5 18 -23 40 -41 21 -17 54 -53 71 -81 18 -27 36 -49
41 -49 24 0 -7 76 -51 123 -39 43 -101 72 -101 48z"/>
<path d="M5767 7064 c-4 -4 12 -25 36 -48 23 -23 51 -54 63 -70 11 -17 23 -25
27 -20 11 19 -34 94 -72 120 -38 26 -44 28 -54 18z"/>
<path d="M3872 6704 c-32 -38 -42 -72 -42 -136 0 -57 21 -43 35 23 6 30 20 73
32 96 28 54 13 64 -25 17z"/>
<path d="M3924 6685 c-24 -42 -48 -158 -37 -177 11 -19 21 -4 33 50 7 31 21
79 31 105 11 26 19 52 19 57 0 23 -21 7 -46 -35z"/>
<path d="M3981 6664 c-25 -32 -47 -132 -32 -147 14 -14 13 -15 38 68 11 39 24
78 28 88 11 26 -11 21 -34 -9z"/>
<path d="M6126 6732 c-3 -5 3 -26 14 -47 11 -21 25 -65 31 -97 6 -32 16 -58
20 -58 15 0 10 110 -7 145 -18 39 -50 70 -58 57z"/>
<path d="M6067 6724 c-3 -3 2 -25 12 -47 10 -23 24 -67 31 -97 18 -80 18 -80
31 -80 19 0 5 119 -19 166 -22 43 -45 68 -55 58z"/>
<path d="M6020 6684 c0 -4 9 -32 19 -63 11 -31 22 -68 26 -83 9 -43 25 -33 25
15 0 45 -35 127 -58 135 -7 2 -12 0 -12 -4z"/>
<path d="M4805 7195 c-113 -28 -366 -170 -350 -196 4 -6 19 -2 38 11 59 39
196 100 274 122 67 19 105 22 268 22 l190 1 90 -33 c132 -48 128 -47 123 -31
-6 18 -108 61 -213 90 -104 28 -330 36 -420 14z"/>
<path d="M4845 7130 c-65 -13 -155 -50 -225 -92 -73 -44 -200 -145 -200 -159
0 -18 20 -8 84 40 214 162 530 214 784 130 60 -20 87 -20 66 0 -14 15 -150 58
-236 75 -81 17 -205 19 -273 6z"/>
<path d="M4900 7044 c-284 -56 -505 -222 -622 -470 -31 -64 -33 -76 -33 -174
0 -103 1 -107 35 -164 57 -95 171 -150 200 -97 15 29 -1 58 -55 99 -72 55
-100 110 -100 197 1 57 7 82 32 137 99 211 276 362 484 412 93 23 266 21 361
-3 200 -51 358 -181 459 -374 85 -164 58 -308 -73 -385 -43 -25 -51 -84 -13
-98 80 -31 209 103 222 231 21 203 -153 465 -397 598 -112 61 -218 88 -355 92
-66 2 -131 1 -145 -1z"/>
<path d="M5730 6854 c0 -4 21 -37 46 -75 46 -70 86 -156 111 -244 8 -27 16
-56 18 -62 2 -7 11 -10 21 -6 26 10 12 79 -34 174 -58 117 -162 254 -162 213z"/>
<path d="M16434 6820 c-13 -80 -68 -89 -207 -33 -121 48 -221 56 -282 21 -50
-29 -93 -91 -101 -145 -6 -39 -5 -43 15 -43 17 0 21 6 21 30 0 41 39 80 80 80
17 0 70 -15 118 -34 118 -46 125 -47 185 -47 65 0 103 14 146 54 39 37 61 83
61 127 0 47 -28 39 -36 -10z"/>
<path d="M5630 6846 c0 -3 23 -36 52 -73 64 -85 111 -185 133 -285 17 -79 34
-97 54 -60 17 32 -44 191 -113 292 -52 77 -126 150 -126 126z"/>
<path d="M4963 6800 c-102 -21 -137 -63 -110 -130 17 -44 6 -54 -18 -16 -20
31 -65 49 -98 41 -35 -9 -46 -25 -55 -76 -6 -38 -13 -46 -44 -61 -70 -33 -72
-89 -3 -102 33 -7 45 -19 27 -30 -5 -3 -25 0 -46 6 -33 10 -39 9 -59 -10 -21
-22 -21 -23 -4 -68 16 -45 16 -48 -3 -79 -11 -18 -20 -42 -20 -53 0 -28 29
-55 51 -48 62 20 64 18 22 -18 -67 -59 -58 -125 20 -148 23 -7 50 -23 60 -35
26 -33 63 -30 82 7 8 16 15 40 15 53 0 13 6 30 13 38 6 8 11 13 10 11 -6 -14
24 -65 44 -76 25 -13 25 -13 -24 -31 -26 -10 -84 -36 -128 -58 -188 -94 -302
-125 -511 -139 l-41 -3 14 45 c31 97 -8 234 -76 275 -19 11 -57 41 -85 67 -29
26 -78 59 -110 74 -104 48 -248 24 -340 -56 -17 -15 -48 -33 -69 -39 -20 -7
-62 -35 -93 -63 -253 -231 -340 -665 -219 -1083 86 -298 279 -581 489 -719
137 -90 222 -112 299 -78 50 22 67 45 67 90 0 28 -33 82 -50 82 -5 0 -10 -12
-12 -27 -6 -50 -68 -38 -68 13 0 77 118 69 138 -9 11 -42 36 -42 40 0 4 41
-11 69 -51 93 -61 37 -137 16 -163 -46 -12 -29 -19 -34 -47 -34 -67 1 -153 60
-176 123 -6 16 -11 49 -11 75 0 26 -6 58 -13 72 -11 22 -20 25 -67 27 -30 1
-61 2 -67 2 -25 2 -45 60 -38 110 6 44 5 48 -19 59 -38 17 -52 53 -36 92 10
25 18 30 46 30 27 0 37 5 46 25 24 54 -26 109 -68 74 -12 -10 -20 -7 -44 16
-17 16 -39 48 -51 72 -19 38 -19 48 -8 97 9 41 9 62 0 86 -23 68 -3 130 42
130 40 0 67 27 67 68 0 27 8 44 31 68 42 44 34 65 -23 62 l-43 -3 -2 79 c-1
75 0 80 28 105 16 15 32 41 35 59 8 38 22 47 87 55 62 9 61 -6 -3 -61 -83 -71
-92 -168 -20 -220 37 -27 38 -48 5 -92 -35 -47 -33 -90 6 -135 17 -19 38 -35
46 -35 10 0 5 11 -16 35 -44 51 -41 76 4 36 53 -46 78 -40 27 7 -23 22 -42 47
-42 57 0 13 12 6 48 -28 51 -47 106 -81 123 -75 6 2 -14 20 -43 41 -32 21 -64
54 -78 79 l-24 43 41 -32 c43 -35 108 -66 161 -78 50 -11 38 2 -40 41 -64 32
-146 99 -135 110 2 3 27 -11 55 -30 50 -33 172 -81 172 -67 0 3 -30 21 -67 40
-36 18 -82 44 -101 59 -37 28 -122 128 -122 143 0 21 27 7 44 -23 49 -82 126
-141 218 -166 61 -17 52 -1 -21 34 -63 31 -141 99 -141 124 0 17 10 12 57 -30
46 -40 149 -97 159 -87 3 3 -16 20 -43 38 -65 44 -93 70 -93 87 0 12 3 12 19
1 76 -56 128 -89 141 -89 9 0 1 12 -20 29 -19 16 -35 37 -35 47 0 12 -11 21
-33 26 -44 12 -49 30 -17 62 101 101 53 256 -95 306 l-51 17 32 7 c138 27 272
-161 214 -301 -19 -44 -19 -53 -1 -53 21 0 56 92 56 147 0 122 -112 240 -231
244 -22 0 -23 1 -4 9 33 14 138 11 188 -6 60 -20 130 -82 158 -142 53 -108 18
-278 -70 -339 -44 -30 -53 -53 -21 -53 31 0 105 75 129 130 29 68 36 152 17
220 l-14 55 23 -28 c64 -74 59 -234 -9 -307 -42 -44 -119 -172 -154 -254 -62
-149 -77 -229 -76 -421 1 -150 4 -182 27 -267 29 -109 70 -200 122 -270 60
-82 59 -82 220 -42 117 29 340 74 365 74 4 0 10 -24 14 -54 26 -223 197 -433
375 -462 l41 -7 0 -304 c0 -285 1 -304 18 -301 16 3 17 27 20 306 2 240 5 302
15 302 77 0 212 86 280 179 43 58 44 59 74 46 39 -16 63 -51 63 -89 0 -28 1
-29 16 -15 21 22 29 89 14 133 -6 20 -26 48 -44 62 l-33 26 13 57 c8 31 14 71
14 89 0 19 5 32 13 32 21 0 296 -58 402 -85 l100 -25 45 49 c62 65 116 172
147 289 34 133 43 360 19 482 -34 164 -101 314 -201 449 -30 40 -60 92 -66
115 -15 54 -6 133 20 184 21 42 52 73 36 36 -18 -41 -18 -181 0 -235 29 -85
135 -179 159 -140 4 5 -9 18 -27 30 -70 43 -107 124 -107 235 1 186 150 303
347 271 l48 -8 -49 -8 c-100 -16 -197 -109 -212 -204 -7 -52 10 -136 36 -168
28 -34 32 -17 14 54 -16 60 -16 68 0 122 31 106 133 181 216 160 l31 -8 -47
-14 c-29 -9 -63 -30 -89 -55 -77 -74 -81 -167 -9 -246 l35 -38 -23 -16 c-12
-9 -30 -16 -40 -16 -11 0 -18 -7 -18 -19 0 -11 -14 -31 -31 -46 -75 -62 18
-24 99 41 22 19 32 22 32 12 0 -18 -42 -58 -100 -93 -25 -16 -40 -30 -33 -32
18 -6 107 42 159 88 30 26 50 37 52 29 7 -20 -76 -95 -139 -125 -67 -32 -78
-48 -21 -33 89 25 162 79 221 166 24 34 41 42 41 17 0 -9 -33 -48 -72 -89 -54
-54 -93 -83 -148 -109 -45 -22 -66 -37 -53 -37 30 0 122 41 180 81 l47 33 -23
-33 c-30 -42 -87 -83 -145 -105 -50 -19 -63 -40 -18 -30 48 11 116 44 155 75
20 16 37 26 37 22 0 -22 -55 -85 -101 -114 -28 -19 -46 -35 -41 -37 19 -6 76
29 125 76 36 36 47 42 47 28 0 -11 -18 -36 -40 -58 -23 -21 -35 -38 -28 -38
17 0 64 32 84 56 14 18 15 18 8 -6 -3 -14 -20 -40 -37 -57 -20 -22 -26 -33
-16 -33 42 0 96 81 83 123 -4 12 -17 36 -30 53 -33 42 -30 57 14 92 35 29 37
33 37 91 l0 62 -57 55 c-32 31 -58 60 -58 66 0 5 19 7 48 3 77 -11 82 -13 88
-55 4 -26 15 -45 34 -59 28 -20 29 -24 29 -106 l-1 -85 -41 2 c-37 3 -42 0
-45 -19 -2 -14 5 -27 22 -39 20 -12 26 -25 26 -51 0 -52 15 -72 61 -79 51 -8
63 -31 54 -98 -9 -66 -9 -92 0 -142 8 -48 -8 -91 -54 -141 -27 -29 -32 -31
-59 -21 -38 15 -58 6 -66 -27 -10 -39 16 -75 54 -75 59 0 69 -74 16 -115 -33
-25 -35 -29 -29 -75 9 -76 -11 -100 -85 -100 -31 0 -63 -4 -70 -8 -16 -11 -32
-67 -32 -114 0 -49 -12 -77 -46 -112 -39 -38 -96 -66 -137 -66 -29 0 -37 5
-47 30 -27 64 -96 88 -160 55 -36 -18 -62 -66 -58 -103 4 -39 34 -41 41 -3 12
59 67 88 118 61 23 -13 26 -62 3 -81 -21 -17 -50 1 -47 30 6 53 -56 0 -64 -54
-4 -34 -1 -44 22 -68 26 -25 79 -47 116 -47 44 0 156 46 226 93 256 171 465
524 530 892 23 135 13 379 -20 500 -63 225 -188 407 -325 473 -33 16 -76 41
-95 56 -90 69 -227 87 -324 41 -29 -13 -74 -44 -100 -68 -27 -24 -62 -52 -80
-61 -40 -20 -80 -86 -94 -158 -9 -43 -8 -66 4 -113 l15 -58 -101 7 c-152 10
-244 38 -437 135 -52 27 -112 54 -133 61 l-38 12 25 19 c13 10 27 31 31 46 8
33 21 17 30 -39 4 -21 13 -45 22 -53 22 -23 59 -18 77 9 8 13 30 27 48 31 49
11 68 32 68 77 0 32 -7 45 -37 75 -24 22 -31 33 -18 28 44 -16 56 -17 70 -5
20 16 19 64 -1 95 -16 24 -15 39 1 106 10 37 -18 63 -59 54 -50 -11 -59 -11
-63 2 -3 7 10 15 31 18 74 14 75 73 1 105 -41 17 -45 23 -45 54 0 43 -26 74
-67 82 -28 6 -38 1 -69 -30 -20 -20 -39 -35 -41 -32 -3 2 1 21 8 41 11 31 11
40 -1 63 -29 52 -143 81 -237 62z m-8 -91 c42 -25 123 -23 153 5 10 9 28 16
40 16 28 0 29 -31 2 -75 -18 -29 -18 -33 -4 -53 24 -34 55 -28 95 20 34 39 39
41 63 30 17 -7 26 -20 26 -34 0 -51 13 -70 57 -89 41 -17 51 -39 18 -39 -35 0
-65 -24 -65 -50 0 -42 22 -54 81 -46 50 7 51 6 45 -16 -17 -59 -18 -87 -2
-109 15 -23 22 -59 11 -59 -4 0 -20 7 -36 16 -24 12 -34 13 -45 3 -24 -19 -16
-53 21 -89 23 -23 35 -43 35 -61 0 -24 -6 -30 -36 -38 -20 -6 -47 -20 -60 -32
-27 -25 -44 -18 -44 20 0 58 -63 121 -122 121 -49 0 -76 -70 -33 -87 23 -8 45
15 25 27 -18 11 -6 25 15 17 18 -7 20 -48 3 -65 -19 -19 -73 -14 -92 7 -16 17
-16 25 -6 56 7 20 10 39 7 41 -11 11 -47 -42 -48 -70 l-1 -31 -9 26 c-11 29
-1 59 33 102 16 20 19 30 11 38 -8 8 -17 5 -31 -9 l-20 -20 -6 21 c-6 20 -7
21 -19 5 -13 -16 -15 -16 -30 -1 -30 30 -31 -10 -2 -53 23 -33 26 -46 21 -83
l-6 -44 34 6 c25 4 36 1 40 -9 4 -11 -6 -14 -50 -14 -51 0 -54 1 -44 19 16 31
12 76 -9 102 -24 29 -38 18 -23 -16 16 -35 15 -51 -4 -69 -34 -34 -104 -10
-104 35 0 11 7 22 15 26 22 8 30 -4 15 -22 -10 -12 -9 -16 4 -21 19 -7 46 12
46 34 0 25 -31 52 -59 52 -19 0 -22 3 -12 9 29 19 4 41 -46 41 -54 0 -115 -27
-150 -66 -32 -35 -29 -53 3 -23 25 23 26 23 15 2 -20 -38 -12 -49 14 -18 28
34 33 27 9 -11 -25 -37 -7 -43 22 -7 26 34 83 73 105 73 8 0 -1 -9 -19 -20
-33 -20 -62 -71 -62 -109 0 -30 -19 -35 -44 -12 -13 12 -40 26 -60 32 -31 9
-36 14 -36 39 0 21 9 37 35 57 38 30 47 71 20 93 -12 10 -20 9 -40 -4 -13 -9
-29 -16 -35 -16 -15 0 -12 27 6 55 10 16 14 37 11 57 -3 18 -7 42 -9 53 -3 18
2 20 48 17 53 -4 84 13 84 44 0 22 -38 54 -65 54 -37 0 -31 27 10 40 40 13 55
35 55 79 0 20 7 34 20 41 30 16 56 4 79 -35 23 -39 53 -46 83 -18 23 20 22 32
-2 63 -11 14 -20 35 -20 48 0 29 27 29 75 1z m-1283 -616 c68 -40 95 -123 64
-196 -28 -69 -136 -88 -136 -23 0 34 25 52 54 38 20 -9 25 -7 35 14 15 33 14
49 -4 84 -42 81 -163 78 -249 -6 -66 -66 -159 -233 -198 -354 -21 -67 -23 -94
-23 -255 0 -200 9 -262 61 -426 67 -209 195 -424 335 -560 95 -92 162 -132
250 -151 46 -9 60 -9 86 4 26 13 31 13 26 2 -13 -34 -96 -45 -164 -23 -95 32
-292 198 -390 329 -59 78 -179 316 -214 421 -58 178 -75 439 -40 604 32 152
114 322 209 431 74 86 213 117 298 67z m2872 13 c95 -29 174 -119 257 -291 54
-112 73 -178 90 -304 21 -157 -8 -400 -67 -557 -37 -100 -158 -329 -206 -392
-95 -122 -276 -277 -372 -317 -40 -17 -128 -20 -155 -5 -10 5 -21 16 -24 24
-5 11 -1 11 24 -1 21 -11 44 -13 77 -9 170 24 372 225 516 515 103 205 146
390 146 632 0 219 -31 321 -154 509 -54 82 -74 104 -118 129 -106 61 -213 21
-210 -79 1 -42 10 -52 42 -45 48 10 77 -36 44 -69 -18 -19 -30 -20 -73 -5 -78
27 -89 165 -19 231 50 47 120 59 202 34z m-1534 -286 c0 -73 -3 -88 -14 -84
-8 3 -17 12 -20 20 -3 8 -15 14 -26 14 -25 0 -25 -8 -2 -27 15 -13 15 -13 -5
-3 -73 35 -99 -84 -33 -147 37 -35 39 -61 4 -65 -19 -2 -38 9 -80 49 -29 28
-54 57 -54 63 0 7 11 25 25 42 14 16 25 35 25 43 0 7 7 15 15 19 21 8 19 46
-2 46 -13 0 -14 3 -5 12 18 18 15 31 -5 24 -15 -6 -15 -4 2 14 19 21 13 42 -7
22 -7 -7 -22 -12 -35 -12 -13 0 -32 -9 -44 -21 -16 -16 -29 -20 -50 -15 -27 5
-29 3 -29 -24 0 -17 4 -30 9 -30 5 0 16 -3 25 -6 11 -4 16 0 16 12 0 16 2 17
10 4 19 -30 12 -43 -20 -36 -23 4 -30 2 -30 -10 0 -8 10 -19 23 -24 l22 -9
-23 0 c-28 -1 -82 -28 -82 -41 0 -15 38 -32 45 -20 8 12 25 13 25 2 0 -5 -10
-14 -22 -19 -22 -10 -22 -11 -4 -19 11 -4 27 -2 38 5 11 7 22 10 25 8 3 -3 -5
-10 -16 -17 -12 -6 -21 -15 -21 -20 0 -15 36 -12 50 4 12 16 40 11 40 -6 0 -7
-5 -6 -13 1 -11 8 -18 6 -31 -8 -14 -15 -14 -19 -3 -24 8 -3 20 0 27 6 10 9
11 9 5 -1 -8 -15 21 -52 41 -52 22 0 27 -20 10 -39 -31 -34 -17 -62 37 -75 32
-8 36 -26 6 -26 -26 0 -20 -24 7 -28 10 -1 28 4 39 12 30 22 8 61 -40 70 l-36
7 31 29 c16 15 30 37 30 47 0 16 6 19 30 15 68 -10 81 54 25 117 -36 40 -48
91 -21 91 8 0 18 -5 21 -10 4 -6 11 -8 16 -4 5 3 7 8 5 12 -2 4 7 7 20 7 l24
0 0 -278 c0 -214 -3 -278 -12 -281 -7 -2 -44 -9 -83 -15 -38 -6 -80 -14 -92
-17 -22 -6 -23 -4 -23 51 0 44 -3 56 -14 52 -7 -3 -34 -8 -59 -12 -44 -7 -45
-8 -52 -51 -3 -24 -4 -53 0 -64 5 -16 0 -19 -37 -22 -40 -3 -43 -5 -48 -37 -4
-28 -11 -35 -40 -45 -33 -10 -35 -13 -38 -62 -3 -58 13 -84 54 -84 l24 0 0
-125 c0 -121 -1 -125 -22 -129 -13 -3 -63 -13 -113 -21 -49 -9 -155 -32 -235
-51 l-145 -35 -32 36 c-46 53 -98 159 -129 260 -22 74 -27 117 -31 244 -6 162
3 244 39 356 29 90 102 233 152 296 l44 56 109 8 c147 9 231 27 389 85 155 57
243 78 332 79 l62 1 0 -90z m110 0 c0 -83 -2 -91 -26 -115 -23 -23 -26 -32
-22 -76 3 -29 14 -62 27 -79 20 -27 21 -41 21 -215 l0 -185 -35 0 -35 0 0 380
0 380 35 0 35 0 0 -90z m118 47 c2 -19 -4 -33 -24 -50 -19 -17 -27 -33 -27
-55 0 -20 -5 -32 -14 -32 -10 0 -13 21 -13 88 l0 89 38 -6 c31 -5 37 -11 40
-34z m91 2 c30 -11 31 -12 31 -75 0 -36 -4 -64 -10 -64 -5 0 -10 13 -10 28 0
18 -11 38 -30 57 -28 27 -41 65 -21 65 4 0 22 -5 40 -11z m110 -40 l31 -11 0
-228 c0 -190 -2 -230 -15 -240 -8 -7 -15 -25 -15 -41 0 -22 -5 -29 -20 -29
-19 0 -20 7 -20 115 0 105 2 117 25 151 45 66 42 154 -6 169 -16 5 -19 16 -19
66 0 32 2 59 4 59 1 0 17 -5 35 -11z m-134 -89 c-4 -13 -7 -29 -8 -35 -1 -5
21 -10 49 -11 65 -1 74 -7 74 -50 0 -41 -18 -80 -54 -113 -14 -14 -26 -33 -26
-43 0 -12 -7 -17 -21 -15 -29 3 -48 -27 -32 -51 8 -14 7 -23 -6 -41 l-17 -23
-17 26 c-10 15 -13 27 -7 31 15 9 12 41 -6 56 -12 10 -20 10 -34 1 -15 -9 -17
-8 -13 8 3 11 -8 33 -32 58 -42 48 -61 102 -45 132 11 20 29 25 88 21 l33 -3
-6 45 c-6 39 -4 46 16 61 22 15 24 14 47 -6 17 -17 21 -29 17 -48z m-525 56
c0 -3 -4 -8 -10 -11 -5 -3 -10 -1 -10 4 0 6 5 11 10 11 6 0 10 -2 10 -4z m779
-7 l31 -11 0 -220 0 -219 -40 33 -40 33 0 198 c0 108 4 197 9 197 4 0 22 -5
40 -11z m149 -117 c3 -82 2 -84 -29 -113 -29 -27 -31 -33 -27 -79 3 -32 14
-61 31 -84 23 -30 27 -45 27 -102 l0 -67 -23 21 c-13 12 -31 22 -40 22 -15 0
-17 22 -17 248 l0 249 38 -6 37 -6 3 -83z m112 50 c0 -17 -10 -38 -25 -52 -17
-16 -25 -34 -25 -57 0 -18 -4 -33 -10 -33 -6 0 -10 35 -10 85 l0 85 35 0 c32
0 35 -3 35 -28z m118 -64 c2 -49 -1 -78 -8 -78 -5 0 -10 16 -10 35 0 27 -7 39
-30 57 -19 13 -30 31 -30 45 0 22 4 24 38 21 l37 -3 3 -77z m-1153 52 c-3 -5
-14 -10 -23 -9 -14 0 -13 2 3 9 27 11 27 11 20 0z m1088 -68 c11 -12 16 -32
14 -58 l-2 -39 37 3 c54 5 78 -12 78 -54 0 -42 -12 -68 -53 -111 -20 -21 -28
-38 -24 -52 4 -17 2 -18 -13 -9 -35 22 -68 -30 -38 -60 9 -9 9 -12 0 -12 -7 0
-12 -7 -12 -15 0 -8 -6 -15 -13 -15 -17 0 -39 37 -27 45 15 9 12 41 -6 56 -12
10 -20 10 -34 1 -15 -9 -17 -8 -13 7 3 10 -12 37 -36 66 -71 86 -55 160 34
153 l40 -3 -2 39 c-3 40 17 76 42 76 7 0 19 -8 28 -18z m152 -45 l35 -64 0
-464 0 -464 -38 -50 -37 -50 -3 117 c-2 102 0 120 18 150 26 43 26 107 0 141
-19 23 -20 40 -20 236 0 211 0 211 26 251 15 22 29 60 31 85 5 40 3 47 -26 74
-24 22 -31 38 -31 65 0 20 2 36 5 36 2 0 20 -29 40 -63z m131 -372 c23 -146 5
-360 -40 -480 -13 -37 -15 -10 -15 325 l0 365 20 -55 c11 -30 27 -100 35 -155z
m-976 191 c0 -3 -4 -8 -10 -11 -5 -3 -10 -1 -10 4 0 6 5 11 10 11 6 0 10 -2
10 -4z m48 -69 c8 -6 12 -43 12 -119 0 -105 -1 -109 -20 -104 -65 19 -60 7
-60 132 l0 114 28 -6 c15 -4 33 -11 40 -17z m113 -104 c-25 -30 -27 -70 -6
-118 l14 -35 -27 6 c-15 4 -30 9 -34 11 -5 2 -8 53 -8 112 0 115 7 134 55 143
17 3 20 -3 23 -45 2 -36 -2 -54 -17 -74z m203 88 c13 -14 16 -28 11 -55 l-7
-36 51 0 c43 0 53 -4 67 -25 21 -32 6 -78 -42 -136 -19 -23 -33 -48 -30 -55 4
-10 -2 -12 -24 -8 -25 6 -30 3 -36 -20 -3 -14 -2 -32 4 -39 7 -8 6 -18 -4 -32
-15 -19 -16 -19 -29 -2 -8 12 -11 32 -8 53 5 30 3 36 -16 41 -11 3 -21 12 -21
19 0 10 15 14 55 14 30 0 55 5 55 10 0 6 -8 10 -17 11 -10 0 -45 2 -77 3 -52
2 -62 6 -88 34 -21 24 -28 43 -28 72 0 46 18 60 78 60 48 0 53 5 40 41 -8 24
-7 34 7 49 23 25 37 25 59 1z m226 -55 c0 -3 -4 -8 -10 -11 -5 -3 -10 -1 -10
4 0 6 5 11 10 11 6 0 10 -2 10 -4z m170 -6 c0 -5 -2 -10 -4 -10 -3 0 -8 5 -11
10 -3 6 -1 10 4 10 6 0 11 -4 11 -10z m-132 -72 c7 -7 12 -35 12 -72 0 -58 -2
-64 -35 -96 l-35 -34 0 113 c0 112 0 112 23 105 12 -3 28 -11 35 -16z m132
-118 c0 -130 -1 -140 -19 -140 -14 0 -17 6 -14 23 3 15 -4 34 -21 54 -22 26
-26 40 -26 98 0 78 11 94 73 104 4 0 7 -62 7 -139z m-242 -139 c-7 -2 -25 -17
-41 -32 l-27 -28 3 78 c2 67 6 82 29 109 15 18 30 42 35 54 5 15 9 -10 11 -77
2 -74 0 -101 -10 -104z m-476 145 c73 -18 150 -36 171 -40 l37 -7 0 -250 c0
-282 -10 -359 -63 -468 -39 -79 -132 -177 -202 -211 -36 -18 -71 -26 -127 -28
-69 -4 -84 -1 -141 26 -78 36 -161 117 -205 200 -56 105 -62 147 -62 452 l0
276 148 37 c189 47 177 44 249 46 41 1 108 -11 195 -33z m632 -85 c14 -16 16
-29 11 -61 l-7 -42 33 3 c60 4 78 -1 89 -22 17 -30 2 -76 -37 -120 -20 -22
-35 -50 -35 -63 0 -21 -3 -23 -18 -13 -14 8 -22 8 -34 -2 -18 -15 -21 -47 -6
-56 6 -4 3 -16 -7 -31 -21 -33 -37 -17 -35 35 2 46 -19 71 -43 51 -13 -10 -15
-9 -15 12 0 13 -12 35 -26 49 -52 49 -71 123 -38 150 9 7 35 12 60 11 50 -2
58 6 44 44 -9 23 -7 31 11 51 27 28 31 28 53 4z m-387 -323 c-1 -46 -3 -11 -3
77 0 88 2 125 3 83 2 -42 2 -114 0 -160z m123 67 c0 -180 2 -175 -57 -159 -22
6 -23 10 -23 141 0 134 0 134 28 158 50 45 52 40 52 -140z m97 -18 c17 -15 21
-31 21 -98 l1 -79 -27 6 c-15 3 -33 7 -39 10 -10 2 -13 37 -13 131 l0 128 19
-40 c10 -22 27 -48 38 -58z m253 -163 l0 -66 -32 7 c-41 9 -51 18 -46 41 2 12
13 20 31 22 32 4 45 26 27 47 -10 12 -9 15 4 15 13 0 16 -12 16 -66z m-140
-14 c17 -13 20 -20 10 -20 -31 0 -60 13 -60 26 0 20 21 17 50 -6z"/>
<path d="M4970 6639 c0 -6 9 -22 20 -36 11 -14 20 -32 20 -41 0 -9 -7 -5 -21
12 -21 27 -39 34 -39 16 0 -6 12 -29 27 -51 21 -31 28 -58 32 -112 3 -40 11
-72 16 -72 6 0 13 29 16 65 6 66 25 116 53 139 18 15 21 41 6 41 -6 0 -22 -12
-36 -27 -19 -20 -23 -22 -18 -7 4 10 16 29 27 41 11 13 16 27 11 34 -5 9 -15
3 -35 -20 -26 -31 -27 -32 -34 -12 -7 24 -45 49 -45 30z"/>
<path d="M4795 6561 c-4 -8 1 -24 12 -39 36 -50 36 -57 -1 -18 -28 30 -39 37
-48 28 -9 -9 -4 -19 22 -42 38 -31 35 -40 -5 -14 -13 9 -32 14 -42 12 -13 -3
-3 -14 38 -40 31 -20 71 -57 89 -82 19 -25 37 -46 41 -46 20 0 17 25 -12 106
-33 91 -79 158 -94 135z"/>
<path d="M5226 6544 c-14 -16 -39 -66 -56 -112 -47 -130 -40 -142 33 -58 26
30 65 65 87 77 22 13 40 26 40 31 0 15 -32 8 -63 -14 -30 -20 -30 -19 6 19 26
27 35 43 27 48 -6 4 -28 -11 -53 -37 -42 -44 -42 -38 1 20 33 45 15 65 -22 26z"/>
<path d="M4704 6369 c-3 -5 10 -16 28 -24 l33 -14 -48 -1 c-56 0 -55 -19 1
-21 l37 -2 -39 -6 c-64 -10 -57 -31 10 -31 31 0 74 -5 96 -12 53 -16 71 0 41
39 -34 47 -144 96 -159 72z"/>
<path d="M5265 6356 c-69 -31 -116 -121 -52 -101 12 3 57 9 100 12 100 7 103
21 7 36 -14 3 -7 5 18 6 58 2 53 21 -5 22 -46 1 -47 1 -16 10 18 5 35 14 38
19 9 15 -55 12 -90 -4z"/>
<path d="M5201 6186 c-10 -12 -1 -20 53 -45 37 -18 74 -44 86 -61 12 -17 25
-30 30 -30 13 0 1 31 -24 60 -11 14 -4 9 17 -9 40 -38 52 -24 15 18 -19 21
-17 20 10 -3 22 -21 32 -25 32 -15 0 19 -45 62 -87 83 -40 20 -116 21 -132 2z"/>
<path d="M4540 5765 c-14 -17 -3 -38 16 -31 9 4 18 -3 23 -17 10 -25 38 -53
46 -45 9 9 -35 96 -51 102 -21 8 -20 8 -34 -9z"/>
<path d="M4467 5703 c-8 -43 -37 -296 -45 -402 l-7 -95 -50 -13 c-103 -27
-265 -54 -361 -61 -83 -6 -99 -10 -102 -24 -3 -15 4 -18 37 -18 91 0 361 44
464 76 15 5 17 -3 17 -70 0 -72 -1 -76 -19 -65 -28 18 -51 4 -51 -31 0 -27 -2
-30 -19 -20 -27 14 -37 13 -55 -6 -26 -26 -20 -79 14 -117 31 -36 39 -72 18
-79 -7 -3 -23 8 -36 24 -14 16 -37 35 -53 44 -35 18 -40 58 -9 74 11 6 20 21
20 33 0 12 9 28 20 35 23 14 26 40 6 48 -8 3 -12 13 -8 26 4 16 2 19 -9 13
-11 -6 -12 -5 -1 6 6 7 12 19 12 27 0 10 -4 10 -22 -2 -12 -9 -30 -16 -40 -16
-10 0 -27 -9 -39 -21 -13 -13 -30 -19 -47 -17 -22 2 -28 -2 -30 -19 -3 -17 3
-26 23 -33 14 -5 31 -9 37 -7 6 1 13 -4 16 -12 4 -11 -2 -13 -26 -8 -17 4 -33
3 -36 -1 -8 -14 8 -30 34 -35 22 -4 21 -4 -6 -6 -30 -1 -84 -34 -84 -51 0 -14
31 -20 51 -10 27 15 24 -4 -3 -23 -21 -14 -22 -16 -5 -22 11 -5 25 -1 36 9 10
9 22 16 27 16 5 -1 -2 -10 -15 -21 -18 -15 -21 -23 -13 -31 9 -9 17 -7 34 9
23 20 48 21 48 2 0 -6 -4 -8 -9 -5 -14 9 -41 -5 -41 -21 0 -8 7 -13 18 -11 9
2 21 -5 27 -17 6 -11 21 -21 33 -23 14 -2 22 -10 22 -23 0 -10 -4 -19 -9 -19
-5 0 -12 -7 -15 -16 -9 -22 18 -50 55 -58 34 -6 38 -21 8 -29 -24 -6 -17 -27
10 -27 9 0 26 6 36 14 30 22 7 63 -41 72 l-36 7 26 24 c23 21 31 41 27 66 0 4
9 7 22 7 60 0 64 63 7 116 -41 38 -55 84 -25 84 8 0 15 -5 15 -11 0 -6 12 -9
28 -7 21 2 28 9 30 29 2 21 8 26 22 22 12 -3 19 1 22 14 2 10 7 -27 12 -82 9
-132 31 -293 39 -302 4 -4 12 -2 17 3 7 7 3 74 -10 195 -12 102 -19 228 -18
279 l3 94 89 22 c49 12 155 34 235 49 80 14 156 28 169 31 27 5 30 34 3 34
-43 0 -409 -73 -485 -96 -18 -6 -19 -1 -13 112 4 66 14 170 22 233 8 63 15
125 15 138 0 32 -26 29 -33 -4z m-287 -673 c0 -5 -5 -10 -11 -10 -5 0 -7 5 -4
10 3 6 8 10 11 10 2 0 4 -4 4 -10z m52 -32 c-9 -9 -12 -7 -12 12 0 19 3 21 12
12 9 -9 9 -15 0 -24z m-37 -48 c-3 -5 -16 -10 -28 -9 -21 0 -21 1 -2 9 28 12
37 12 30 0z"/>
<path d="M4194 5683 c-15 -3 -24 -14 -28 -35 -15 -77 2 -118 48 -118 34 0 57
32 71 100 l13 60 -42 -1 c-22 -1 -51 -4 -62 -6z"/>
<path d="M4523 5639 c-15 -15 -17 -49 -4 -49 6 0 12 4 16 9 3 6 28 7 57 4 40
-5 50 -3 46 8 -2 7 -18 17 -34 20 -16 4 -38 10 -49 14 -11 3 -26 0 -32 -6z"/>
<path d="M4648 5529 c-29 -17 -23 -64 12 -89 35 -25 38 -36 10 -43 -11 -3 -20
-12 -20 -21 0 -16 18 -16 68 0 17 5 15 39 -3 54 -15 13 -21 60 -7 60 4 0 13 4
21 9 12 8 12 12 2 25 -15 18 -57 21 -83 5z"/>
<path d="M4302 5503 c-35 -68 -13 -136 40 -131 39 4 64 38 73 101 l6 47 -55 0
c-43 0 -57 -4 -64 -17z"/>
<path d="M4175 5501 c-31 -6 -42 -29 -44 -88 -1 -42 34 -68 71 -54 33 12 45
30 53 76 4 22 9 48 12 58 3 14 -2 17 -29 16 -18 -1 -46 -4 -63 -8z"/>
<path d="M4048 5493 c-52 -4 -61 -13 -72 -77 -9 -45 12 -76 51 -76 28 0 73 41
73 67 0 10 3 35 6 56 4 20 3 36 -2 35 -5 -1 -30 -3 -56 -5z"/>
<path d="M4154 5323 c-33 -4 -44 -27 -44 -94 0 -38 37 -63 72 -50 33 12 44 29
52 76 4 22 9 48 12 58 6 18 -13 20 -92 10z"/>
<path d="M3947 5003 c-13 -13 -7 -33 11 -33 9 -1 26 -15 37 -32 11 -17 26 -33
33 -36 17 -5 15 23 -3 38 -8 7 -15 20 -15 29 0 31 -43 54 -63 34z"/>
<path d="M3927 4865 c-9 -8 -14 -22 -11 -30 7 -16 17 -19 28 -7 4 4 28 7 53 7
54 0 69 20 21 28 -18 3 -42 8 -54 12 -14 4 -27 1 -37 -10z"/>
<path d="M4073 4770 c-45 -18 -41 -75 7 -102 34 -20 39 -38 10 -38 -12 0 -20
-7 -20 -16 0 -12 7 -14 33 -9 56 12 59 20 25 65 l-22 30 24 25 c19 20 21 27
10 40 -14 17 -34 18 -67 5z"/>
<path d="M5257 5770 c-9 -33 -8 -110 2 -134 7 -18 8 -18 14 5 8 30 7 96 -2
129 l-7 25 -7 -25z"/>
<path d="M5164 5625 c-7 -18 12 -45 32 -45 22 0 27 20 8 41 -21 23 -33 24 -40
4z"/>
<path d="M5320 5621 c-15 -29 -12 -41 9 -41 24 0 45 25 37 45 -8 21 -33 19
-46 -4z"/>
<path d="M5220 5560 c-11 -7 3 -10 45 -9 43 0 54 3 40 9 -27 12 -67 12 -85 0z"/>
<path d="M5220 5520 c-11 -7 3 -10 45 -10 42 0 56 3 45 10 -8 5 -28 10 -45 10
-16 0 -37 -5 -45 -10z"/>
<path d="M5837 5619 c-9 -32 -8 -109 2 -133 7 -18 8 -18 14 5 9 32 8 109 -2
133 -7 18 -8 18 -14 -5z"/>
<path d="M5742 5469 c4 -29 33 -48 49 -32 16 16 -6 53 -32 53 -15 0 -20 -5
-17 -21z"/>
<path d="M5900 5470 c-9 -16 -9 -25 -1 -33 16 -16 46 4 46 29 0 27 -31 29 -45
4z"/>
<path d="M5795 5410 c-4 -6 16 -10 52 -10 41 0 54 3 43 10 -20 13 -87 13 -95
0z"/>
<path d="M5795 5370 c-4 -6 15 -10 50 -10 35 0 54 4 50 10 -3 6 -26 10 -50 10
-24 0 -47 -4 -50 -10z"/>
<path d="M5505 5287 c-8 -55 3 -137 16 -116 11 18 11 130 0 148 -7 10 -11 1
-16 -32z"/>
<path d="M5415 5170 c-9 -14 13 -50 31 -50 8 0 17 7 20 15 11 29 -35 61 -51
35z"/>
<path d="M5569 5159 c-8 -16 -8 -24 0 -32 16 -16 45 3 49 32 5 29 -33 29 -49
0z"/>
<path d="M5465 5100 c-4 -6 15 -10 49 -10 31 0 56 5 56 10 0 6 -22 10 -49 10
-28 0 -53 -4 -56 -10z"/>
<path d="M4955 5034 c-11 -3 -65 -16 -120 -29 -55 -13 -112 -27 -127 -30 l-28
-5 0 -105 c0 -61 4 -105 10 -105 5 0 56 7 112 15 57 8 123 16 148 17 l45 3 3
123 c3 128 4 125 -43 116z m-73 -91 c27 -24 23 -69 -8 -89 -55 -37 -117 25
-80 80 19 30 60 35 88 9z"/>
<path d="M5054 5027 c-2 -7 -3 -62 -2 -123 l3 -109 45 -3 c51 -2 200 -20 242
-29 l28 -5 0 106 0 106 -27 5 c-16 3 -71 17 -123 29 -139 35 -160 38 -166 23z
m198 -84 c27 -24 23 -69 -8 -89 -55 -37 -117 25 -80 80 19 30 60 35 88 9z"/>
<path d="M4855 4729 c-44 -5 -100 -12 -125 -17 l-45 -7 -3 -67 c-3 -77 10
-164 25 -161 5 1 74 5 151 9 l142 7 0 123 0 124 -32 -1 c-18 -1 -69 -6 -113
-10z m25 -79 c39 -39 14 -100 -41 -100 -30 0 -59 31 -59 62 0 24 35 58 60 58
11 0 29 -9 40 -20z"/>
<path d="M5052 4619 l3 -124 148 -8 c82 -5 152 -6 155 -2 4 4 7 55 7 113 l0
107 -70 12 c-38 6 -110 14 -158 18 l-88 7 3 -123z m198 31 c39 -39 14 -100
-41 -100 -30 0 -59 31 -59 62 0 24 35 58 60 58 11 0 29 -9 40 -20z"/>
<path d="M4812 4430 c-51 -5 -95 -10 -98 -12 -2 -3 8 -28 22 -57 35 -70 111
-146 176 -176 91 -42 88 -46 88 115 l0 140 -47 -1 c-27 -1 -90 -5 -141 -9z
m116 -52 c21 -21 15 -75 -10 -92 -31 -22 -45 -20 -74 9 -25 26 -26 52 -2 83
13 15 70 16 86 0z"/>
<path d="M5050 4300 c0 -129 1 -140 18 -140 38 0 142 62 183 108 43 49 94 140
85 150 -6 6 -173 21 -243 22 l-43 0 0 -140z m164 74 c43 -43 -5 -120 -60 -96
-13 7 -29 23 -36 36 -24 55 53 103 96 60z"/>
<path d="M5816 4958 c-8 -51 2 -130 15 -122 12 7 11 135 0 153 -6 9 -11 -1
-15 -31z"/>
<path d="M5725 4840 c-3 -5 -1 -19 5 -30 14 -25 50 -27 50 -2 0 33 -40 56 -55
32z"/>
<path d="M5886 4828 c-17 -24 -5 -51 19 -41 27 10 31 63 5 63 -5 0 -16 -10
-24 -22z"/>
<path d="M5785 4770 c-14 -6 -3 -9 40 -9 42 -1 56 2 45 9 -18 12 -58 12 -85 0z"/>
<path d="M5785 4730 c-14 -6 -3 -9 40 -9 42 -1 56 2 45 9 -18 12 -58 12 -85 0z"/>
<path d="M4286 6727 c-102 -143 -157 -307 -102 -307 9 0 20 24 31 70 19 77 73
197 111 247 13 17 24 36 24 42 0 25 -22 7 -64 -52z"/>
<path d="M4177 6703 c-44 -74 -87 -175 -87 -207 0 -7 6 -19 14 -25 11 -10 18
1 36 61 12 39 39 107 61 150 43 85 45 91 32 95 -5 2 -30 -32 -56 -74z"/>
<path d="M13796 6268 c-42 -123 -141 -416 -220 -653 l-143 -430 -76 -3 c-75
-3 -77 -4 -77 -28 l0 -24 173 2 c170 3 172 3 175 26 3 21 0 22 -72 22 -66 0
-76 2 -75 18 0 9 26 94 58 187 l58 170 209 3 209 2 59 -177 c32 -98 61 -184
63 -190 4 -10 -15 -13 -76 -13 -80 0 -81 0 -81 -25 l0 -25 273 2 272 3 3 23
c3 21 1 22 -81 22 l-84 0 -228 655 c-182 521 -232 655 -246 655 -13 0 -34 -49
-93 -222z m112 -378 l90 -275 -185 -3 c-102 -1 -188 0 -190 2 -3 3 37 131 88
285 52 154 97 277 100 273 4 -4 48 -131 97 -282z"/>
<path d="M14904 6472 c-178 -62 -323 -229 -384 -442 -31 -107 -38 -281 -16
-391 32 -157 93 -275 196 -379 75 -75 163 -126 253 -144 57 -12 62 -15 59 -37
-18 -137 -12 -157 58 -201 47 -29 55 -41 51 -78 -5 -43 -94 -67 -136 -36 -16
12 -17 17 -6 45 16 37 2 61 -33 61 -77 0 -50 -115 34 -150 49 -20 117 -8 153
28 23 23 31 42 35 81 6 66 -9 98 -63 139 -25 18 -47 43 -50 55 -10 37 11 76
42 82 15 4 71 17 124 31 125 31 163 31 193 -1 13 -14 31 -25 40 -25 15 0 16
21 14 228 -3 189 -5 227 -17 227 -10 0 -19 -23 -28 -78 -17 -101 -53 -176
-113 -236 -79 -79 -190 -118 -300 -105 -213 25 -285 167 -297 579 -8 295 15
467 80 588 50 96 126 137 251 137 153 0 312 -149 348 -325 8 -42 15 -55 27
-53 14 3 16 29 19 206 2 176 0 203 -13 208 -9 4 -26 -3 -40 -16 -31 -29 -92
-29 -202 -1 -100 26 -209 27 -279 3z"/>
<path d="M15956 5998 c-91 -271 -190 -565 -220 -653 l-53 -160 -76 -3 c-75 -3
-77 -4 -77 -28 l0 -24 173 2 c170 3 172 3 175 26 3 21 0 22 -72 22 -55 0 -76
4 -76 13 0 7 26 91 58 187 l59 175 209 3 209 2 59 -177 c32 -98 61 -184 63
-190 4 -10 -15 -13 -77 -13 -79 0 -81 -1 -78 -22 l3 -23 273 -3 272 -2 0 25
c0 25 -1 25 -83 25 l-83 0 -229 655 c-183 524 -232 655 -245 655 -14 0 -51
-98 -184 -492z m203 -108 l90 -275 -186 -3 c-102 -1 -188 0 -190 2 -3 3 37
131 88 285 52 154 97 277 100 273 4 -4 48 -131 98 -282z"/>
<path d="M17118 6471 c-206 -67 -357 -266 -403 -527 -26 -149 -17 -270 31
-414 123 -369 488 -533 775 -349 84 54 174 159 223 261 63 132 79 207 79 358
-1 149 -22 242 -84 369 -58 118 -164 225 -275 278 -74 35 -86 38 -184 40 -81
2 -118 -1 -162 -16z m297 -48 c80 -42 128 -121 160 -264 22 -97 32 -518 16
-643 -25 -188 -78 -290 -175 -340 -50 -26 -67 -30 -149 -30 -81 -1 -99 3 -149
27 -126 62 -178 198 -193 512 -12 248 19 505 75 617 57 113 127 149 280 145
73 -3 104 -8 135 -24z"/>
<path d="M19967 6483 c-2 -5 -99 -294 -216 -643 -116 -349 -215 -640 -219
-647 -4 -7 -38 -13 -82 -15 -67 -3 -75 -5 -75 -23 0 -19 7 -20 175 -20 173 0
175 0 178 22 3 21 -1 22 -77 25 l-80 3 62 188 61 187 210 -2 209 -3 63 -187
62 -188 -78 0 c-80 0 -95 -6 -84 -34 6 -15 36 -16 278 -14 l271 3 3 23 c3 21
1 22 -81 22 l-85 0 -34 98 c-19 53 -122 348 -229 654 -153 440 -198 558 -211
558 -9 0 -19 -3 -21 -7z m37 -587 l93 -286 -188 0 c-134 0 -189 3 -189 11 0
16 183 569 187 565 2 -2 46 -132 97 -290z"/>
<path d="M8590 6440 c0 -18 7 -20 80 -20 l80 0 0 -620 0 -620 -80 0 c-73 0
-80 -2 -80 -20 0 -20 7 -20 271 -20 252 0 270 1 267 18 -3 14 -16 17 -86 20
l-82 3 0 311 0 311 62 -7 c34 -4 76 -13 93 -20 64 -27 115 -104 115 -173 0
-16 6 -23 20 -23 19 0 20 7 20 235 0 228 -1 235 -20 235 -15 0 -20 -7 -20 -27
-1 -37 -31 -103 -61 -130 -37 -34 -93 -53 -154 -53 l-55 0 0 291 0 291 138 -4
c126 -3 141 -5 194 -31 32 -16 71 -45 88 -65 32 -39 70 -144 70 -193 0 -22 5
-29 20 -29 19 0 20 7 20 180 l0 180 -450 0 c-443 0 -450 0 -450 -20z"/>
<path d="M9640 6440 c0 -18 7 -20 80 -20 l80 0 0 -452 c0 -250 5 -484 10 -523
28 -191 150 -306 355 -335 212 -30 391 47 459 199 41 93 46 157 46 649 l0 462
80 0 c73 0 80 2 80 20 0 19 -7 20 -175 20 -168 0 -175 -1 -175 -20 0 -18 7
-20 75 -20 l75 0 0 -452 c0 -249 -5 -484 -10 -522 -26 -174 -122 -269 -289
-283 -171 -14 -275 61 -310 225 -7 35 -11 218 -11 542 l0 489 82 3 c70 3 83 6
86 21 3 16 -15 17 -267 17 -264 0 -271 0 -271 -20z"/>
<path d="M10932 6443 c3 -15 16 -18 86 -21 l82 -3 0 -619 0 -619 -82 -3 c-70
-3 -83 -6 -86 -20 -3 -17 11 -18 182 -18 179 0 186 1 186 20 0 18 -7 20 -80
20 l-80 0 0 607 0 607 388 -640 c309 -511 392 -640 410 -642 l22 -3 0 655 0
656 80 0 c73 0 80 2 80 20 0 19 -7 20 -185 20 -178 0 -185 -1 -185 -20 0 -18
7 -20 85 -20 l85 0 0 -457 -1 -458 -24 40 c-13 22 -143 236 -288 475 l-263
435 -208 3 c-194 2 -207 1 -204 -15z"/>
<path d="M12245 6450 c-14 -22 10 -30 86 -30 l79 0 0 -620 0 -620 -79 0 c-57
0 -80 -4 -84 -13 -14 -38 1 -39 324 -35 306 4 316 5 386 30 246 88 404 336
404 633 1 316 -169 571 -430 649 -45 13 -109 16 -367 16 -198 0 -315 -4 -319
-10z m671 -45 c101 -30 166 -120 201 -280 26 -116 26 -568 0 -669 -33 -132
-82 -207 -161 -249 -36 -19 -61 -22 -188 -25 l-148 -4 0 621 0 621 123 0 c80
0 141 -5 173 -15z"/>
<path d="M18342 6443 c3 -15 16 -18 86 -21 l82 -3 0 -619 0 -619 -82 -3 c-75
-3 -83 -5 -83 -23 0 -19 8 -20 255 -23 335 -3 410 5 517 58 144 71 252 202
310 375 25 73 27 93 27 235 0 144 -2 161 -28 235 -36 105 -76 173 -145 247
-69 76 -155 132 -239 158 -58 18 -93 20 -384 20 -299 0 -319 -1 -316 -17z
m715 -56 c137 -71 193 -280 180 -677 -8 -254 -34 -360 -107 -444 -61 -69 -96
-80 -262 -84 l-148 -4 0 622 0 622 143 -4 c130 -4 146 -6 194 -31z"/>
<path d="M3900 6110 c0 -6 10 -21 21 -33 29 -30 59 -96 59 -132 0 -43 -19
-105 -42 -138 -29 -41 -10 -56 29 -23 47 40 66 134 43 217 -17 60 -110 152
-110 109z"/>
<path d="M6088 6093 c-47 -50 -62 -93 -63 -168 0 -76 20 -124 62 -152 20 -14
23 -14 29 1 3 8 -3 27 -14 41 -12 15 -26 50 -32 80 -14 67 -1 122 40 169 49
56 28 82 -22 29z"/>
<path d="M3382 5407 c-7 -9 -10 -56 -8 -132 3 -113 4 -119 29 -141 15 -13 46
-25 77 -29 58 -8 70 -25 70 -96 0 -32 -7 -47 -41 -84 -36 -39 -41 -49 -34 -77
3 -18 7 -55 8 -81 2 -54 15 -67 67 -67 93 0 140 -61 140 -182 l0 -78 59 -30
c33 -16 66 -27 73 -25 7 3 21 19 31 36 9 17 31 36 47 42 17 6 30 15 30 19 0
17 -20 15 -69 -8 -52 -24 -115 -32 -125 -16 -3 5 21 14 52 20 51 11 140 57
129 68 -2 2 -26 -5 -52 -17 -37 -16 -59 -20 -93 -15 -52 7 -47 4 -56 33 -6 18
-1 26 26 43 l33 20 -32 0 c-34 0 -54 17 -29 25 47 15 52 18 26 22 -85 12 -89
27 -10 38 78 11 67 22 -29 28 -74 5 -161 26 -161 40 0 2 49 1 109 -1 128 -5
164 12 42 21 -47 3 -97 13 -125 26 -53 23 -55 46 -3 30 39 -13 187 -13 199 -1
6 6 -21 11 -64 14 -65 4 -148 31 -135 44 2 3 26 0 51 -7 51 -13 152 -7 169 10
8 8 -10 11 -58 11 -47 0 -84 7 -112 20 -49 22 -59 46 -15 36 66 -15 135 -19
128 -8 -4 7 -21 12 -37 12 -37 0 -89 21 -108 43 -18 22 -9 21 39 -3 40 -20
124 -27 134 -11 3 4 -20 11 -50 14 -38 4 -70 15 -98 34 l-41 28 63 3 c34 2 62
6 62 10 0 4 -35 15 -78 24 -85 17 -182 55 -182 70 0 6 8 7 18 3 75 -29 202
-46 202 -26 0 5 -21 12 -47 15 -57 8 -168 60 -177 82 -7 18 -11 19 99 -20 39
-14 88 -25 110 -25 37 1 34 3 -41 27 -83 28 -184 94 -184 120 0 10 10 7 33
-10 73 -57 210 -107 290 -108 40 0 33 18 -10 25 -78 13 -136 39 -196 84 -96
74 -123 84 -145 58z"/>
<path d="M6599 5406 c-15 -7 -50 -32 -79 -55 -62 -49 -99 -66 -180 -82 -71
-14 -70 -34 1 -25 84 11 173 44 232 85 31 22 59 36 62 31 11 -18 -108 -95
-189 -123 l-81 -28 64 6 c37 3 87 16 119 30 60 28 72 30 72 15 0 -20 -92 -68
-155 -81 -36 -7 -65 -17 -65 -22 0 -14 124 0 168 19 36 15 49 13 38 -5 -8 -13
-150 -58 -208 -67 -68 -9 -59 -24 15 -24 l62 -1 -28 -24 c-30 -27 -85 -45
-135 -45 -20 0 -31 -4 -27 -10 11 -18 98 -11 138 10 42 23 47 24 47 11 0 -15
-84 -51 -118 -51 -17 0 -34 -5 -38 -11 -7 -12 69 -8 129 7 43 10 33 -14 -15
-36 -29 -13 -66 -20 -113 -20 -55 0 -66 -3 -57 -12 15 -15 152 -18 195 -4 18
5 27 5 27 -3 0 -16 -97 -41 -159 -41 -38 0 -52 -3 -45 -10 14 -14 172 -15 207
-1 35 14 37 14 37 0 0 -20 -92 -51 -171 -56 -122 -9 -86 -26 42 -21 60 2 109
3 109 1 0 -14 -87 -35 -161 -40 -98 -7 -108 -18 -24 -28 74 -10 70 -35 -6 -35
-18 0 -28 -4 -24 -10 3 -5 18 -10 31 -10 35 0 26 -23 -12 -31 l-29 -6 28 -11
c23 -10 28 -17 25 -39 -2 -20 -11 -29 -33 -35 -37 -11 -97 -3 -137 18 -45 23
-45 9 0 -21 21 -14 67 -31 102 -39 43 -8 58 -15 46 -19 -29 -12 -75 -8 -106 8
-53 28 -79 35 -85 24 -4 -5 7 -14 25 -20 17 -6 37 -24 45 -40 25 -47 45 -52
101 -22 27 14 53 29 57 33 5 4 10 43 11 86 1 51 8 90 19 110 19 36 71 64 119
64 51 0 72 20 66 61 -3 19 1 51 9 72 l15 37 -47 51 -48 51 7 55 c4 31 9 59 11
63 3 5 29 11 58 15 28 4 59 11 68 16 26 14 37 58 42 166 3 87 1 105 -13 118
-20 18 -28 19 -61 1z"/>
<path d="M9030 4631 c-72 -23 -106 -41 -169 -91 -99 -78 -187 -224 -227 -375
-26 -96 -26 -322 0 -415 72 -261 253 -445 472 -480 77 -12 110 -9 239 26 118
31 159 31 191 -1 53 -53 55 -46 52 203 -3 194 -5 227 -18 227 -11 0 -17 -17
-22 -60 -21 -167 -114 -294 -250 -342 -111 -38 -266 -15 -337 50 -40 37 -88
151 -108 255 -22 118 -26 512 -6 628 43 248 122 342 294 352 71 4 84 2 144
-26 115 -55 200 -164 227 -294 9 -45 16 -58 30 -58 17 0 18 14 18 210 0 197
-1 210 -18 210 -11 0 -27 -9 -36 -19 -29 -31 -73 -33 -184 -6 -121 29 -214 31
-292 6z"/>
<path d="M10023 3998 l-218 -653 -78 -3 c-74 -3 -78 -4 -75 -25 3 -22 5 -22
173 -22 169 0 170 0 173 23 3 21 0 22 -72 22 -46 0 -76 4 -76 10 0 12 73 240
102 318 l19 52 207 0 207 0 59 -177 c32 -98 61 -184 63 -190 4 -10 -15 -13
-77 -13 -79 0 -81 -1 -78 -22 l3 -23 269 -3 c274 -2 292 0 279 35 -4 9 -28 13
-87 13 l-81 0 -189 543 c-286 819 -266 767 -286 767 -15 0 -57 -115 -237 -652z
m250 73 c47 -147 89 -275 93 -285 6 -14 -12 -16 -186 -16 -150 0 -191 3 -187
13 2 6 44 135 93 285 48 149 90 272 94 272 3 0 45 -121 93 -269z"/>
<path d="M11253 4637 c-174 -65 -276 -303 -214 -505 40 -134 115 -192 400
-308 134 -55 188 -93 219 -154 47 -94 18 -231 -64 -298 -86 -71 -235 -89 -335
-40 -108 54 -205 184 -230 308 -7 38 -17 60 -25 60 -11 0 -14 -40 -14 -214 0
-118 4 -217 9 -220 5 -3 21 10 35 29 40 52 74 54 182 9 79 -33 98 -37 174 -37
112 0 181 26 258 98 101 93 148 210 140 349 -10 180 -95 266 -375 380 -188 76
-263 134 -289 223 -13 43 -13 63 -4 107 40 195 284 251 423 97 42 -47 54 -71
69 -149 8 -40 15 -52 27 -50 14 3 16 26 19 161 2 139 1 158 -14 164 -10 4 -23
-2 -33 -15 -26 -34 -59 -35 -134 -7 -74 27 -167 33 -224 12z"/>
<path d="M12425 4638 c-13 -37 -435 -1292 -435 -1294 0 -2 -35 -4 -77 -6 -70
-3 -78 -5 -78 -23 0 -19 7 -20 175 -20 168 0 175 1 175 20 0 18 -8 21 -77 25
l-77 5 62 188 61 187 210 -2 209 -3 63 -187 62 -187 -81 -3 c-74 -3 -82 -5
-82 -23 0 -20 7 -20 275 -20 l275 0 3 23 c3 21 1 22 -82 22 l-85 0 -11 33 c-7
17 -110 311 -229 652 -166 477 -220 621 -234 623 -9 2 -19 -2 -22 -10z m125
-855 c0 -10 -43 -13 -189 -13 l-189 0 96 290 97 290 92 -277 c51 -153 93 -283
93 -290z"/>
<path d="M18007 3996 l-218 -655 -77 -3 c-69 -3 -77 -5 -77 -23 0 -19 7 -20
175 -20 168 0 175 1 175 20 0 18 -8 20 -77 23 -43 2 -78 6 -78 10 0 3 28 89
62 189 l63 183 209 -2 209 -3 63 -187 62 -187 -81 -3 c-74 -3 -82 -5 -82 -23
0 -20 7 -20 275 -20 268 0 275 0 275 20 0 18 -8 20 -84 25 l-84 5 -227 650
c-188 541 -229 650 -246 653 -17 2 -43 -71 -237 -652z m340 -222 c-2 -2 -87
-3 -188 -2 l-185 3 95 290 95 290 94 -288 c51 -159 92 -291 89 -293z"/>
<path d="M22383 4637 c-175 -65 -276 -303 -214 -505 40 -134 115 -192 400
-308 134 -55 188 -93 219 -154 47 -94 18 -231 -64 -298 -86 -71 -235 -89 -335
-40 -108 54 -205 184 -230 308 -7 38 -17 60 -25 60 -11 0 -14 -40 -14 -214 0
-118 4 -217 9 -220 5 -3 21 10 35 29 40 52 74 54 182 9 79 -33 98 -37 174 -37
112 0 181 26 258 98 101 93 148 210 140 349 -6 98 -33 162 -96 223 -55 54
-117 89 -270 153 -135 56 -190 86 -240 134 -60 56 -80 120 -61 204 31 148 194
224 334 158 86 -41 143 -120 160 -223 4 -27 12 -43 21 -43 11 0 14 30 14 165
0 138 -2 165 -15 165 -8 0 -19 -9 -25 -19 -17 -32 -59 -34 -133 -6 -74 27
-167 33 -224 12z"/>
<path d="M13470 4600 c0 -18 7 -20 80 -20 l80 0 0 -620 0 -620 -81 0 c-78 0
-80 -1 -77 -22 l3 -23 310 0 c292 0 314 1 380 22 144 45 271 158 344 307 56
112 75 197 75 336 0 140 -16 209 -80 339 -75 153 -199 260 -353 305 -45 13
-110 16 -368 16 -306 0 -313 0 -313 -20z m700 -46 c81 -37 135 -119 165 -250
26 -108 37 -330 26 -497 -15 -224 -45 -318 -123 -395 -59 -59 -106 -72 -265
-72 l-133 0 0 621 0 621 143 -4 c115 -3 150 -8 187 -24z"/>
<path d="M14700 4600 c0 -18 7 -20 80 -20 l80 0 0 -620 0 -620 -80 0 c-79 0
-80 0 -80 -25 l0 -25 493 2 492 3 0 200 c0 175 -2 200 -16 203 -13 2 -18 -9
-23 -52 -16 -136 -84 -234 -194 -277 -49 -20 -80 -24 -219 -27 l-163 -4 0 312
0 312 58 -6 c87 -11 117 -23 155 -66 25 -27 39 -54 47 -94 7 -36 16 -56 26
-56 12 0 14 38 14 235 0 201 -2 235 -15 235 -8 0 -17 -11 -20 -25 -3 -14 -8
-37 -11 -52 -16 -77 -99 -132 -196 -133 l-58 0 0 290 0 290 123 0 c83 0 141
-5 176 -16 100 -29 173 -126 187 -246 5 -48 10 -58 25 -58 18 0 19 11 19 180
l0 180 -450 0 c-443 0 -450 0 -450 -20z"/>
<path d="M16150 4600 c0 -18 6 -20 85 -20 l85 0 0 -620 0 -619 -82 -3 c-75 -3
-83 -5 -83 -23 0 -19 7 -20 180 -20 179 0 180 0 183 23 3 21 1 22 -77 22 l-81
0 0 578 1 577 200 -560 c109 -308 207 -582 218 -610 12 -33 25 -51 37 -53 17
-2 36 52 163 454 79 251 166 522 192 602 l47 147 1 -567 1 -568 -81 0 c-78 0
-80 -1 -77 -22 l3 -23 259 -3 c264 -2 282 0 269 35 -4 9 -27 13 -84 13 l-79 0
0 620 0 620 79 0 c58 0 80 4 84 14 3 8 3 17 0 20 -4 3 -89 6 -189 6 l-183 0
-19 -52 c-10 -29 -84 -257 -162 -506 l-144 -453 -82 228 c-45 125 -126 352
-180 503 l-99 275 -193 3 c-187 2 -192 2 -192 -18z"/>
<path d="M18750 4410 c0 -179 2 -210 15 -210 16 0 21 17 29 98 3 29 17 80 32
113 46 101 128 156 254 166 l70 6 0 -622 0 -621 -80 0 c-79 0 -80 0 -80 -25
l0 -25 263 2 262 3 3 23 c3 21 1 22 -77 22 l-81 0 0 620 0 620 44 0 c24 0 74
-9 111 -21 126 -39 199 -139 214 -294 5 -46 10 -61 24 -63 16 -3 17 12 17 207
l0 211 -510 0 -510 0 0 -210z"/>
<path d="M19862 4603 c3 -15 16 -18 86 -21 l82 -3 0 -619 0 -619 -82 -3 c-75
-3 -83 -5 -83 -23 0 -20 8 -20 493 -23 l492 -2 0 205 c0 173 -2 205 -15 205
-8 0 -16 -14 -20 -35 -3 -19 -8 -52 -11 -72 -16 -103 -104 -200 -212 -233 -52
-16 -92 -20 -213 -20 l-149 0 2 308 3 307 65 -3 c66 -4 122 -25 152 -59 24
-27 48 -87 48 -123 0 -23 4 -30 20 -30 19 0 20 7 20 235 0 228 -1 235 -20 235
-16 0 -20 -7 -20 -32 0 -39 -30 -106 -56 -130 -34 -30 -92 -48 -154 -48 l-60
0 0 290 0 290 128 0 c166 0 217 -14 282 -79 49 -49 72 -102 85 -194 5 -38 10
-48 23 -45 15 3 17 22 17 178 l0 175 -453 3 c-428 2 -453 1 -450 -15z"/>
<path d="M20922 4603 c3 -15 16 -18 85 -21 l82 -3 3 -512 c3 -510 3 -512 26
-562 75 -164 201 -237 412 -238 208 -2 326 68 392 232 23 55 23 61 26 568 l3
512 82 3 c69 3 82 6 85 21 3 16 -9 17 -175 15 -150 -3 -178 -5 -178 -18 0 -12
16 -16 73 -18 l73 -3 -3 -507 c-4 -554 -3 -545 -64 -634 -49 -71 -155 -118
-264 -118 -136 0 -222 59 -262 179 -22 64 -22 81 -26 574 l-3 507 85 0 c79 0
86 2 86 20 0 20 -7 20 -271 20 -252 0 -270 -1 -267 -17z"/>
<path d="M4338 4486 c-25 -6 -50 -14 -53 -18 -7 -7 669 -717 683 -718 4 0 8
43 10 95 l3 95 -48 51 c-26 29 -80 76 -120 105 -45 34 -88 77 -119 121 -27 37
-93 116 -148 176 -110 117 -109 117 -208 93z"/>
<path d="M4120 4356 c0 -30 -5 -67 -10 -82 -9 -22 -6 -32 16 -61 43 -57 240
-266 440 -468 155 -157 197 -193 231 -203 47 -14 91 -60 100 -103 4 -22 11
-29 28 -29 12 0 27 6 33 13 16 19 25 64 18 93 -7 25 -829 894 -847 894 -5 0
-9 -24 -9 -54z"/>
<path d="M5715 4390 c-95 -20 -147 -130 -103 -214 l15 -29 7 35 c7 40 49 84
88 93 37 9 95 -12 115 -41 8 -14 19 -39 22 -57 l7 -32 17 32 c57 108 -47 239
-168 213z"/>
<path d="M4036 4255 c-11 -31 -6 -260 9 -358 42 -281 208 -565 385 -661 43
-23 71 -30 132 -34 131 -8 206 34 215 121 5 39 2 47 -16 56 -12 7 -26 9 -31 6
-6 -3 -10 5 -10 18 0 26 16 37 56 37 32 0 51 -38 35 -69 -10 -18 -9 -22 5 -28
24 -9 44 23 44 69 0 55 -37 88 -97 88 -38 0 -51 -6 -79 -34 -42 -42 -46 -85
-11 -120 13 -13 30 -26 38 -29 25 -10 -35 -55 -85 -62 -133 -20 -264 61 -378
234 -128 196 -167 347 -172 676 -1 83 -4 100 -17 103 -9 2 -19 -4 -23 -13z"/>
<path d="M5968 4264 c-4 -3 -4 -45 -1 -92 11 -176 -29 -404 -96 -548 -80 -171
-184 -292 -291 -342 -76 -36 -180 -37 -227 -4 -35 25 -42 42 -19 42 22 0 56
49 56 82 0 59 -46 98 -115 98 -47 0 -95 -45 -95 -88 0 -38 34 -82 50 -66 9 9
9 17 1 32 -14 26 -14 28 5 46 22 23 71 20 84 -4 13 -24 5 -41 -14 -34 -25 9
-49 -26 -42 -64 13 -83 75 -121 197 -122 68 0 84 4 147 35 149 75 304 307 368
550 24 90 27 120 28 290 1 164 -1 190 -14 193 -9 1 -19 0 -22 -4z"/>
<path d="M3971 4184 c0 -6 -12 -23 -26 -38 -31 -33 -68 -34 -107 -1 -38 32
-106 35 -132 6 -25 -27 -25 -85 0 -112 57 -63 175 -66 216 -5 13 19 1 17 -36
-5 -66 -39 -150 -7 -144 55 4 42 38 46 79 12 35 -29 67 -33 108 -11 31 15 56
63 48 92 -3 10 -5 13 -6 7z"/>
<path d="M6064 4160 c8 -44 41 -78 83 -86 26 -5 41 -1 71 20 46 32 78 34 87 5
10 -30 -24 -72 -67 -83 -29 -7 -44 -5 -77 12 -46 24 -55 14 -15 -17 53 -42
169 -18 199 40 20 38 19 62 -6 93 -28 36 -89 36 -135 1 -47 -36 -76 -32 -114
13 l-32 37 6 -35z"/>
<path d="M3757 4103 c-26 -25 19 -73 68 -73 41 0 47 15 10 24 -14 4 -31 18
-37 31 -11 24 -28 32 -41 18z"/>
<path d="M6246 4086 c-4 -17 -15 -26 -36 -31 -36 -8 -30 -25 8 -25 38 0 72 26
72 56 0 33 -36 33 -44 0z"/>
<path d="M5305 4083 c-35 -9 -87 -54 -101 -89 -18 -43 -18 -76 2 -122 l16 -37
14 48 c38 123 187 115 224 -12 8 -26 8 -26 24 12 47 108 -61 228 -179 200z"/>
<path d="M5676 4070 c-77 -24 -122 -113 -100 -197 9 -32 18 -29 33 13 23 64
107 94 161 57 36 -25 48 -43 58 -88 l8 -40 18 34 c29 55 18 132 -24 176 -19
20 -50 40 -70 45 -40 11 -45 11 -84 0z"/>
<path d="M4107 3973 c3 -32 11 -86 17 -119 l11 -62 225 -236 c124 -130 228
-236 231 -236 3 0 3 27 1 60 -3 45 0 66 13 86 16 25 16 27 -7 51 -104 114
-481 509 -488 511 -5 2 -6 -22 -3 -55z"/>
<path d="M3695 4000 c-4 -6 -4 -28 0 -48 5 -34 3 -40 -25 -60 -39 -29 -38 -46
5 -93 32 -36 34 -42 28 -84 -9 -72 23 -93 86 -57 28 15 33 15 41 2 16 -24 12
-37 -22 -69 l-32 -29 32 -37 c18 -19 32 -46 32 -58 0 -31 18 -47 52 -47 18 0
31 -7 39 -22 22 -42 41 -47 66 -18 39 45 56 13 28 -54 -14 -34 -14 -37 5 -56
15 -15 33 -20 70 -20 48 0 51 -2 67 -35 19 -39 44 -45 81 -19 33 23 40 9 14
-26 -42 -56 -23 -85 47 -74 33 5 41 2 73 -30 49 -49 81 -48 127 3 l35 38 32
-19 c29 -17 37 -18 61 -6 15 7 37 30 48 51 18 34 23 37 51 32 45 -8 64 2 64
36 0 33 -15 39 -23 9 -4 -17 -11 -19 -51 -14 -44 6 -45 6 -62 -29 -24 -50 -55
-62 -96 -37 l-33 20 -36 -40 c-20 -22 -46 -40 -57 -40 -11 0 -32 16 -47 36
-28 37 -43 40 -97 19 -23 -9 -24 17 -3 35 18 15 20 61 4 77 -8 8 -5 17 11 33
28 28 19 37 -14 14 -15 -9 -24 -19 -22 -22 8 -7 -40 -42 -58 -42 -8 0 -23 14
-33 30 -15 26 -23 30 -63 30 -70 0 -78 10 -58 65 13 33 15 53 8 70 -12 31 -49
33 -73 4 -21 -24 -38 -21 -52 9 -5 12 -24 24 -44 29 -29 7 -36 14 -42 42 -4
18 -14 40 -23 49 -14 14 -12 19 14 49 36 40 37 52 9 87 -23 29 -60 34 -79 11
-7 -8 -19 -15 -28 -15 -11 0 -13 8 -8 39 5 35 2 44 -30 82 l-36 43 36 31 c36
30 44 52 27 71 -5 5 -11 20 -13 33 -3 27 -22 39 -33 21z"/>
<path d="M6320 3988 c0 -12 -7 -32 -15 -42 -23 -30 -18 -45 20 -67 19 -12 35
-26 35 -33 0 -7 -14 -25 -31 -42 -27 -26 -30 -34 -26 -72 5 -49 -4 -59 -35
-38 -73 51 -134 -40 -71 -106 25 -26 25 -29 10 -46 -9 -10 -20 -33 -23 -50 -4
-22 -12 -32 -24 -32 -32 0 -51 -12 -61 -36 -11 -29 -30 -31 -54 -4 -21 24 -48
26 -65 5 -12 -14 -11 -31 6 -99 8 -35 -6 -46 -61 -46 -33 0 -45 -6 -67 -32
l-27 -33 -35 19 c-19 10 -33 23 -30 30 2 6 -7 16 -21 23 -29 13 -33 2 -9 -22
13 -12 14 -19 5 -28 -17 -17 -13 -51 9 -79 25 -33 18 -38 -32 -25 -40 10 -42
9 -71 -26 -41 -52 -62 -48 -120 22 l-18 22 -35 -21 c-33 -21 -36 -21 -60 -5
-14 9 -29 27 -34 40 -11 30 -39 45 -65 34 -33 -13 -45 -10 -45 12 0 24 -23 21
-28 -5 -6 -31 18 -48 59 -41 36 6 39 5 58 -32 10 -22 32 -45 46 -51 24 -11 32
-10 63 8 34 20 36 20 45 4 40 -72 95 -82 148 -28 32 33 37 35 81 29 41 -6 48
-4 58 15 10 19 9 27 -9 51 -29 39 -27 55 4 35 40 -26 64 -20 81 19 14 33 17
35 63 35 33 0 56 6 72 19 23 19 23 19 6 55 -32 68 -16 98 29 55 18 -17 26 -19
42 -10 12 6 24 20 27 31 4 13 15 20 30 20 41 0 55 11 61 50 4 22 17 49 30 61
30 29 30 43 -1 63 -28 19 -34 63 -10 73 9 3 24 -2 34 -11 20 -19 67 -21 77 -5
4 7 6 36 5 65 -1 47 2 57 29 85 38 40 39 74 3 93 -25 12 -28 20 -28 62 0 29
-5 49 -12 51 -8 3 -13 -4 -13 -19z"/>
<path d="M3930 3945 c-35 -48 -65 -67 -114 -68 -29 -2 -41 -6 -41 -17 0 -10
13 -16 42 -18 34 -3 47 2 78 29 35 31 84 109 68 109 -5 0 -19 -16 -33 -35z"/>
<path d="M6080 3971 c0 -19 47 -87 76 -110 35 -28 117 -31 112 -3 -2 10 -12
16 -23 15 -40 -4 -85 19 -125 64 -22 25 -40 41 -40 34z"/>
<path d="M3942 3890 c-34 -45 -69 -64 -121 -65 -34 0 -46 -4 -46 -15 0 -12 12
-15 54 -14 52 0 56 2 98 48 23 26 43 54 43 62 0 20 -3 18 -28 -16z"/>
<path d="M6070 3913 c0 -20 60 -93 89 -108 17 -8 49 -15 71 -15 34 0 41 3 38
18 -2 12 -14 17 -38 18 -19 0 -44 1 -54 2 -11 1 -39 23 -63 48 -24 26 -43 42
-43 37z"/>
<path d="M3934 3832 c-35 -40 -47 -46 -90 -51 -53 -6 -70 -33 -25 -39 52 -8
117 32 147 90 25 48 12 48 -32 0z"/>
<path d="M6060 3875 c0 -20 46 -89 72 -108 36 -27 111 -30 116 -4 3 14 -4 17
-33 17 -47 0 -85 21 -123 67 -17 21 -31 34 -32 28z"/>
<path d="M5230 3788 c-55 -38 -75 -73 -75 -131 0 -35 7 -62 20 -82 l20 -29 6
44 c8 60 53 100 112 100 54 0 84 -21 107 -74 l17 -41 11 40 c37 130 -110 246
-218 173z"/>
<path d="M5600 3769 c-57 -24 -100 -85 -100 -142 0 -47 10 -52 32 -16 10 16
35 37 55 46 80 33 157 -26 151 -114 -2 -24 0 -43 4 -43 4 0 19 18 34 39 46 70
30 164 -37 214 -31 23 -103 31 -139 16z"/>
<path d="M3965 3706 c-22 -23 -49 -46 -60 -52 -16 -10 -18 -14 -7 -25 19 -21
62 7 90 59 33 59 24 65 -23 18z"/>
<path d="M6030 3741 c0 -22 48 -99 70 -111 10 -5 26 -10 34 -10 26 0 18 28
-13 44 -15 8 -42 32 -59 53 -17 21 -31 32 -32 24z"/>
<path d="M4018 3630 c-18 -41 -42 -64 -82 -77 -41 -13 -45 -33 -8 -33 54 0
121 77 110 127 -3 14 -8 10 -20 -17z"/>
<path d="M6000 3645 c0 -30 28 -82 55 -103 32 -26 85 -30 85 -7 0 8 -7 15 -15
15 -33 0 -76 32 -95 70 -22 43 -30 49 -30 25z"/>
<path d="M4042 3593 c-17 -39 -48 -68 -87 -80 -32 -10 -41 -36 -14 -41 41 -8
124 83 117 130 -3 21 -4 20 -16 -9z"/>
<path d="M5980 3606 c0 -53 79 -141 120 -133 28 5 15 27 -29 49 -27 14 -51 36
-62 56 -22 43 -29 49 -29 28z"/>
<path d="M4046 3537 c-14 -25 -32 -47 -41 -51 -20 -7 -20 -36 0 -36 26 0 63
45 71 84 9 53 0 53 -30 3z"/>
<path d="M5961 3568 c-1 -29 30 -98 50 -108 48 -26 51 -2 7 50 -18 20 -38 45
-45 56 -11 17 -12 17 -12 2z"/>
<path d="M4137 3501 c-3 -15 -18 -42 -32 -59 -27 -32 -26 -56 1 -45 28 11 71
133 46 133 -5 0 -12 -13 -15 -29z"/>
<path d="M5885 3498 c11 -51 21 -72 43 -91 31 -28 36 -3 7 39 -14 21 -28 48
-31 61 -10 36 -27 28 -19 -9z"/>
<path d="M4173 3382 c-38 -39 -39 -42 -16 -42 13 0 14 -3 5 -12 -7 -7 -12 -16
-12 -20 0 -15 37 -8 53 10 20 22 40 73 31 81 -4 3 -9 0 -11 -6 -3 -7 -13 -23
-24 -35 l-20 -23 16 27 c27 45 14 57 -22 20z"/>
<path d="M5830 3411 c0 -23 24 -61 42 -67 33 -10 31 3 -6 41 -20 19 -36 31
-36 26z"/>
<path d="M4955 3397 c-27 -12 -30 -19 -41 -95 -13 -91 -46 -166 -86 -195 -24
-18 -28 -18 -49 -3 -75 52 -136 -39 -70 -105 57 -57 141 -30 202 63 34 54 79
164 79 195 0 32 -19 8 -44 -56 -29 -74 -81 -143 -127 -166 -52 -27 -99 -14
-99 27 0 22 42 25 60 3 41 -50 170 125 170 231 0 32 1 34 16 20 19 -20 37 -11
29 15 -4 11 -2 19 4 19 6 0 11 -11 11 -25 0 -16 6 -25 15 -25 9 0 15 9 15 25
0 14 5 25 11 25 5 0 9 -10 7 -22 -4 -32 24 -30 33 2 6 20 7 15 8 -20 3 -84 72
-215 131 -245 24 -12 30 -12 46 0 33 25 56 19 52 -12 -3 -24 -8 -28 -38 -31
-66 -6 -144 73 -186 185 -19 53 -30 70 -40 60 -8 -8 21 -98 53 -162 61 -124
164 -172 226 -107 64 67 7 155 -68 106 -23 -15 -27 -15 -49 -1 -42 28 -67 83
-83 180 -9 51 -21 98 -28 105 -18 19 -124 25 -160 9z"/>
<path d="M5815 3363 c16 -40 39 -63 62 -63 21 0 15 18 -10 35 -13 8 -29 26
-35 40 -19 41 -34 29 -17 -12z"/>
<path d="M5790 3363 c0 -32 18 -73 35 -79 24 -9 30 3 13 23 -9 10 -23 32 -31
48 -14 26 -16 27 -17 8z"/>
<path d="M4240 3361 c0 -5 -12 -24 -26 -41 -30 -35 -21 -65 10 -32 20 23 39
82 25 82 -5 0 -9 -4 -9 -9z"/>
<path d="M4856 3341 c-4 -7 -19 -16 -33 -22 -24 -9 -24 -29 1 -29 18 0 49 36
44 51 -4 11 -6 11 -12 0z"/>
<path d="M5170 3336 c0 -18 33 -46 53 -46 27 0 20 17 -18 39 -25 14 -35 17
-35 7z"/>
<path d="M4403 3185 c-27 -26 -29 -35 -9 -35 8 0 22 10 30 22 30 42 16 51 -21
13z"/>
<path d="M4445 3184 c-10 -16 -25 -34 -33 -40 -18 -13 -7 -35 13 -28 16 6 48
70 43 86 -2 6 -12 -2 -23 -18z"/>
<path d="M5570 3196 c0 -17 42 -78 58 -84 19 -6 14 23 -8 43 -11 10 -22 26
-25 36 -7 22 -25 26 -25 5z"/>
<path d="M5615 3180 c9 -16 22 -30 30 -30 21 0 18 13 -8 38 -32 30 -40 27 -22
-8z"/>
<path d="M4487 3194 c-4 -4 -7 -14 -7 -22 0 -9 -7 -24 -17 -34 -9 -10 -13 -21
-9 -25 12 -12 40 12 48 43 7 28 -2 51 -15 38z"/>
<path d="M5540 3174 c0 -33 17 -64 35 -64 19 0 19 17 0 36 -8 9 -15 24 -15 35
0 10 -4 19 -10 19 -5 0 -10 -12 -10 -26z"/>
<path d="M4949 3060 c-26 -56 -48 -86 -102 -135 -48 -44 -68 -68 -64 -79 15
-38 90 3 139 75 33 49 81 190 69 202 -5 5 -23 -22 -42 -63z"/>
<path d="M5058 3124 c-8 -8 25 -111 55 -170 42 -82 130 -145 160 -115 8 8 -8
29 -66 84 -60 56 -83 87 -107 140 -31 69 -33 71 -42 61z"/>
<path d="M4989 2978 c-17 -64 -43 -109 -83 -146 -42 -38 -47 -62 -12 -62 50 0
99 86 122 213 9 52 -12 48 -27 -5z"/>
<path d="M5043 2968 c10 -100 66 -198 114 -198 36 0 28 27 -21 75 -33 31 -49
58 -62 101 -25 82 -38 92 -31 22z"/>
<path d="M4637 3003 c-12 -11 -8 -48 8 -69 19 -25 19 -48 -1 -64 -19 -17 -15
-60 8 -74 25 -15 47 7 29 28 -10 12 -9 21 5 46 17 28 17 31 1 59 -19 32 -22
61 -7 61 6 0 10 5 10 10 0 11 -43 14 -53 3z"/>
<path d="M5360 3004 c0 -4 8 -12 17 -19 15 -11 15 -15 -6 -48 -22 -36 -22 -37
-4 -67 14 -25 15 -34 5 -50 -10 -17 -10 -21 3 -26 20 -8 45 13 45 38 0 10 -7
30 -17 44 -15 24 -15 27 5 62 24 44 15 72 -23 72 -14 0 -25 -3 -25 -6z"/>
<path d="M4711 2814 c-47 -60 -39 -108 21 -126 24 -7 50 -24 65 -45 28 -37 49
-41 94 -17 l31 15 -22 -29 c-45 -60 1 -92 130 -91 130 1 172 39 112 103 -39
41 -49 61 -57 119 -5 29 -12 46 -19 44 -12 -5 -12 -3 -2 -100 5 -54 4 -68 -6
-65 -9 3 -14 30 -16 81 -2 59 -6 77 -17 77 -12 0 -15 -17 -15 -81 0 -60 -3
-80 -12 -76 -7 2 -12 13 -11 23 1 10 5 47 9 82 5 53 4 62 -10 62 -9 0 -16 -8
-16 -17 0 -30 -19 -88 -35 -108 -16 -19 -16 -19 -6 2 15 30 3 55 -23 51 -14
-2 -22 -12 -24 -28 -7 -47 -46 -69 -59 -32 -11 31 -36 52 -63 52 -34 0 -63 21
-55 41 3 8 20 19 38 25 25 7 32 14 32 34 0 37 -37 39 -64 4z m392 -244 c5 -4
-12 -11 -37 -14 -48 -8 -116 1 -116 14 0 19 133 19 153 0z"/>
<path d="M5281 2826 c-17 -20 -3 -44 31 -51 16 -4 32 -13 35 -21 8 -20 -15
-44 -42 -44 -37 0 -55 -10 -71 -41 -15 -30 -42 -39 -48 -16 -3 6 -7 25 -11 40
-4 22 -11 28 -28 25 -36 -5 -35 -50 3 -82 45 -37 83 -35 108 8 14 24 30 36 58
43 65 15 76 75 23 132 -23 24 -42 27 -58 7z"/>
</g>
</svg>
